<svg width="24" height="24" viewBox="0 0 24 24" fill="none" xmlns="http://www.w3.org/2000/svg">
<path d="M2.00201 12.002C2.00258 14.3833 2.85249 16.6864 4.39898 18.4972C5.94547 20.308 8.08713 21.5078 10.439 21.881V14.892H7.90201V12.002H10.442V9.80202C10.3859 9.28711 10.4439 8.76616 10.6118 8.27619C10.7798 7.78621 11.0535 7.33921 11.4137 6.96695C11.7738 6.59469 12.2115 6.30629 12.6956 6.12224C13.1798 5.93819 13.6985 5.863 14.215 5.90202C14.965 5.91402 15.715 5.98102 16.455 6.10202V8.56102H15.191C14.9762 8.53288 14.7578 8.55338 14.5519 8.621C14.3461 8.68862 14.1581 8.80163 14.0018 8.95169C13.8455 9.10174 13.7249 9.285 13.649 9.48791C13.573 9.69083 13.5436 9.90822 13.563 10.124V12.002H16.334L15.891 14.893H13.563V21.881C15.4506 21.5827 17.2132 20.7498 18.6422 19.4808C20.0711 18.2118 21.1065 16.56 21.6258 14.7208C22.145 12.8817 22.1265 10.9323 21.5722 9.10335C21.018 7.27445 19.9512 5.64265 18.4984 4.40116C17.0455 3.15968 15.2673 2.36049 13.3744 2.09822C11.4814 1.83596 9.55293 2.1216 7.81727 2.92132C6.0816 3.72105 4.61143 5.00137 3.58082 6.6107C2.55021 8.22003 2.00232 10.091 2.00201 12.002Z" fill="#A9A9A9"/>
</svg>
