<svg width="134" height="134" viewBox="0 0 134 134" fill="none" xmlns="http://www.w3.org/2000/svg">
<path d="M67.0029 70.5734C65.0088 70.5812 63.0725 71.2437 61.4916 72.459C59.9106 73.6744 58.7726 75.3753 58.2525 77.3004C57.7324 79.2255 57.859 81.2681 58.6127 83.1143C59.3665 84.9604 60.7057 86.5079 62.4246 87.5188V100.5H71.6929V87.5188C73.0528 86.7144 74.1815 85.5718 74.969 84.2021C75.7566 82.8323 76.1764 81.2821 76.1875 79.7022V79.7022C76.1875 78.4986 75.9496 77.307 75.4873 76.1958C75.0251 75.0846 74.3477 74.0758 73.4941 73.2273C72.6404 72.3789 71.6275 71.7077 70.5135 71.2522C69.3995 70.7967 68.2064 70.5661 67.0029 70.5734V70.5734Z" stroke="black" stroke-width="2" stroke-linecap="round" stroke-linejoin="round"/>
<path d="M101.305 49.6079H32.6577C25.9971 49.6079 20.5977 55.0074 20.5977 61.6679V109.377C20.5977 116.038 25.9971 121.437 32.6577 121.437H101.305C107.965 121.437 113.365 116.038 113.365 109.377V61.6679C113.365 55.0074 107.965 49.6079 101.305 49.6079Z" stroke="black" stroke-width="2" stroke-linecap="round" stroke-linejoin="round"/>
<path d="M37.2734 49.6079V42.3217C37.2734 34.429 40.4088 26.8597 45.9897 21.2788C51.5706 15.6978 59.14 12.5625 67.0326 12.5625C74.9252 12.5625 82.4946 15.6978 88.0755 21.2788C93.6564 26.8597 96.7918 34.429 96.7918 42.3217V49.6079" stroke="black" stroke-width="2" stroke-linecap="round" stroke-linejoin="round"/>
</svg>
