<svg width="30" height="30" viewBox="0 0 30 30" fill="none" xmlns="http://www.w3.org/2000/svg">
<path d="M0.46967 27.9697C0.176777 28.2626 0.176777 28.7374 0.46967 29.0303C0.762563 29.3232 1.23744 29.3232 1.53033 29.0303L0.46967 27.9697ZM29.25 1C29.25 0.585786 28.9142 0.25 28.5 0.25H21.75C21.3358 0.25 21 0.585786 21 1C21 1.41421 21.3358 1.75 21.75 1.75H27.75V7.75C27.75 8.16421 28.0858 8.5 28.5 8.5C28.9142 8.5 29.25 8.16421 29.25 7.75V1ZM1.53033 29.0303L29.0303 1.53033L27.9697 0.46967L0.46967 27.9697L1.53033 29.0303Z" fill="black"/>
</svg>
