<svg width="42" height="12" viewBox="0 0 42 12" fill="none" xmlns="http://www.w3.org/2000/svg">
<path d="M1.55456 5.69544C1.14035 5.69544 0.804564 6.03122 0.804564 6.44544C0.804564 6.85965 1.14035 7.19544 1.55456 7.19544L1.55456 5.69544ZM40.9758 6.97577C41.2687 6.68287 41.2687 6.208 40.9758 5.91511L36.2028 1.14214C35.9099 0.849242 35.435 0.849242 35.1421 1.14214C34.8492 1.43503 34.8492 1.9099 35.1421 2.2028L39.3848 6.44544L35.1421 10.6881C34.8492 10.981 34.8492 11.4558 35.1421 11.7487C35.435 12.0416 35.9099 12.0416 36.2028 11.7487L40.9758 6.97577ZM1.55456 7.19544H40.4454V5.69544H1.55456L1.55456 7.19544Z" fill="white"/>
</svg>
