<svg width="145" height="114" viewBox="0 0 145 114" fill="none" xmlns="http://www.w3.org/2000/svg">
<g clip-path="url(#clip0_231_3)">
<path d="M100.542 88.2679C99.325 87.0325 98.1498 85.7605 97.0133 84.4501C94.6693 87.9311 91.982 91.1637 88.9787 94.0928C93.0185 92.5124 96.8875 90.5568 100.542 88.2679ZM111.825 19.0553C106.423 15.8527 100.769 13.1987 94.9417 11.1098C97.7967 14.8658 100.207 18.9269 102.13 23.2014C105.238 21.5677 108.482 20.1773 111.825 19.0553ZM115.634 75.5943C114.783 74.3407 114.287 72.8152 114.287 71.1664C114.287 69.6827 114.69 68.299 115.396 67.122C112.791 64.3645 110.053 61.7588 107.198 59.3181C107.094 59.3548 106.99 59.3932 106.882 59.4282C105.665 66.9236 103.133 74.0456 99.4765 80.474C101.014 82.2979 102.63 84.0533 104.321 85.7271C106.275 84.3234 108.162 82.813 109.971 81.2126C111.956 79.4537 113.847 77.5782 115.634 75.5943ZM90.4731 47.6132C89.7895 50.7524 87.66 53.3215 84.8453 54.5402C87.4536 62.1573 91.1421 69.2792 95.7526 75.6877C95.996 76.0245 96.2459 76.3662 96.4942 76.703C99.3621 71.2965 101.388 65.3998 102.448 59.2198C100.023 58.1995 98.3174 55.7422 98.3174 52.8697C98.3174 52.7463 98.3174 52.6263 98.3271 52.5079C95.888 50.8325 93.3829 49.2654 90.818 47.8083L90.4731 47.6132ZM88.3773 38.9642C89.1963 39.9378 89.8298 41.0781 90.2329 42.3318C91.1372 42.8152 92.0416 43.312 92.9379 43.8188C95.3625 45.1959 97.7371 46.6696 100.054 48.2367C100.895 47.2898 101.99 46.5879 103.225 46.2445C102.954 40.918 101.967 35.6816 100.307 30.6819C100.189 30.3401 100.071 29.9967 99.9537 29.6532C99.1896 30.1334 98.4383 30.6285 97.6968 31.1387C94.363 33.431 91.2452 36.0483 88.3773 38.9642ZM75.3082 21.9744C77.4007 21.9744 79.0966 23.7266 79.0966 25.8905C79.0966 28.0545 77.4007 29.8066 75.3082 29.8066C73.2158 29.8066 71.5215 28.0545 71.5215 25.8905C71.5215 23.7266 73.2158 21.9744 75.3082 21.9744ZM56.9483 59.0614L70.1238 70.823C70.68 70.5429 71.3071 70.3812 71.9712 70.3812C74.2878 70.3812 76.1675 72.3251 76.1675 74.7258C76.1675 77.1214 74.2878 79.062 71.9712 79.062C69.6498 79.062 67.7702 77.1198 67.7702 74.7258C67.7702 74.4957 67.7879 74.2723 67.8217 74.0522L54.8381 62.464C53.8096 63.3109 52.5054 63.8161 51.0884 63.8161C47.761 63.8161 45.0624 61.0253 45.0624 57.5843C45.0624 54.1417 47.761 51.3509 51.0884 51.3509C54.4173 51.3509 57.1159 54.1417 57.1159 57.5843C57.1175 58.0911 57.0595 58.5863 56.9483 59.0614ZM87.4375 9.16755C87.2876 9.01751 87.1619 8.84746 87.0571 8.65741C86.7637 8.57738 86.4687 8.5007 86.1704 8.42567C76.5028 5.96332 66.4692 5.00639 56.4018 5.63323C55.7731 6.78855 54.5785 7.5671 53.2083 7.5671C51.1883 7.5671 49.5488 5.8733 49.5488 3.78438C49.5488 1.6938 51.1883 0 53.2083 0C54.2174 0 55.1315 0.423451 55.794 1.10697C66.4047 0.40678 76.9993 1.40706 87.2231 4.01278C88.3467 4.29786 89.4639 4.60461 90.5827 4.9297C98.2691 3.69936 105.959 4.83134 112.808 7.94221C120.269 11.3298 126.729 17.0631 131.102 24.6435C133.274 28.3262 134.636 32.4073 135.152 36.6018C135.655 40.7096 135.347 44.9241 134.188 48.9836C134.128 49.7205 134.201 50.4507 134.391 51.1375C134.413 51.1959 134.431 51.2576 134.446 51.3193C134.676 52.0511 135.052 52.7413 135.55 53.3432C135.6 53.4048 135.645 53.4665 135.69 53.5282L143.77 64.7747L143.775 64.7697C144.974 66.5618 144.761 68.3623 143.133 70.1778C142.192 71.2265 140.641 72.2918 138.482 73.3754C138.397 73.5738 138.347 73.8272 138.329 74.1356C138.289 74.8791 138.447 75.8344 138.805 77.0031C138.885 77.2748 138.913 77.5499 138.9 77.8216C138.885 78.8419 138.597 79.8155 138.081 80.6374C137.981 80.8008 137.868 80.9608 137.75 81.1092C137.846 81.3709 137.928 81.6427 137.991 81.9144C138.231 82.9631 138.221 84.0667 137.941 85.142C137.665 86.214 137.135 87.1776 136.421 87.9628C136.15 88.2629 135.85 88.5329 135.524 88.7763C136.235 94.1328 135.253 98.0122 132.574 100.411C129.764 102.924 125.281 103.532 119.129 102.232C116.289 102.532 113.647 103.644 111.462 105.371C109.233 107.14 107.477 109.544 106.473 112.375C106.433 112.51 106.378 112.651 106.31 112.786C105.744 113.895 104.409 114.322 103.337 113.737C95.5156 109.47 87.4585 105.704 79.2143 102.462C72.7209 99.9128 66.1129 97.6855 59.4228 95.7949C58.3798 97.6188 56.4598 98.8408 54.2642 98.8408C50.9594 98.8408 48.2785 96.0717 48.2785 92.6507C48.2785 89.2315 50.9594 86.4607 54.2642 86.4607C57.1143 86.4607 59.4986 88.5196 60.1015 91.2754C66.1839 92.9775 72.184 94.948 78.0842 97.1753C84.5132 92.8708 89.9249 87.2943 94.0648 80.8575C93.4361 80.0489 92.8251 79.2253 92.2238 78.3918C87.1957 71.3998 83.2058 63.6077 80.4346 55.2737C75.5033 54.8869 71.615 50.6274 71.615 45.426C71.615 43.3754 72.2227 41.4665 73.2609 39.8861C62.065 36.0483 50.1646 34.1345 38.0112 34.3979C37.3535 35.3965 36.2427 36.0517 34.9869 36.0517C32.967 36.0517 31.3291 34.3579 31.3291 32.269C31.3291 30.1784 32.967 28.4846 34.9869 28.4846C36.1218 28.4846 37.1358 29.0181 37.8081 29.8583C51.4205 29.5432 64.7314 31.8555 77.1541 36.4635C78.3728 35.8783 79.7334 35.5515 81.1649 35.5515C82.4385 35.5515 83.6491 35.8083 84.7582 36.2767C87.9695 32.9325 91.4951 29.9417 95.2722 27.3443C95.7026 27.0475 96.1363 26.7574 96.5748 26.469C89.422 22.7263 81.9307 19.7538 74.2265 17.5916C54.1836 11.9633 32.7026 11.8133 11.9745 17.7549V17.9233C11.9745 21.3409 9.29686 24.1134 5.98887 24.1134C2.67766 24.115 0 21.3426 0 17.925C0 14.5057 2.67766 11.7333 5.98565 11.7333C7.6348 11.7333 9.12759 12.4235 10.2109 13.5388C31.8966 7.20033 54.398 7.30203 75.3776 13.1953C82.5255 15.1992 89.4913 17.88 96.1959 21.2042C93.8246 16.853 90.8938 12.7969 87.4375 9.16755Z" fill="black"/>
</g>
<defs>
<clipPath id="clip0_231_3">
<rect width="144.536" height="114" fill="white"/>
</clipPath>
</defs>
</svg>
