<svg width="150" height="45" viewBox="0 0 150 45" fill="none" xmlns="http://www.w3.org/2000/svg">
<path d="M56 13.688H61.6105V31.96H65.8781V13.688H71.5185V9.56H56V13.688Z" fill="black"/>
<path d="M83.9407 7V31.96H87.8203V7H83.9407ZM72.66 24.6C72.66 26.2213 72.9683 27.608 73.5851 28.76C74.2019 29.912 75.0176 30.7867 76.0322 31.384C77.0469 31.9813 78.1213 32.28 79.2553 32.28C80.4092 32.28 81.4239 31.9707 82.2993 31.352C83.1946 30.7333 83.891 29.848 84.3883 28.696C84.9056 27.544 85.1643 26.1787 85.1643 24.6C85.1643 23 84.9056 21.6347 84.3883 20.504C83.891 19.352 83.1946 18.4667 82.2993 17.848C81.4239 17.2293 80.4092 16.92 79.2553 16.92C78.1213 16.92 77.0469 17.2187 76.0322 17.816C75.0176 18.4133 74.2019 19.288 73.5851 20.44C72.9683 21.5707 72.66 22.9573 72.66 24.6ZM76.659 24.6C76.659 23.7253 76.8281 22.968 77.1663 22.328C77.5045 21.688 77.9621 21.1973 78.5391 20.856C79.116 20.5147 79.7328 20.344 80.3893 20.344C80.9663 20.344 81.5234 20.5147 82.0606 20.856C82.6176 21.176 83.0653 21.656 83.4035 22.296C83.7616 22.936 83.9407 23.704 83.9407 24.6C83.9407 25.496 83.7616 26.264 83.4035 26.904C83.0653 27.544 82.6176 28.0347 82.0606 28.376C81.5234 28.696 80.9663 28.856 80.3893 28.856C79.7328 28.856 79.116 28.6853 78.5391 28.344C77.9621 28.0027 77.5045 27.512 77.1663 26.872C76.8281 26.232 76.659 25.4747 76.659 24.6Z" fill="black"/>
<path d="M91.3586 11.544C91.3586 12.2053 91.5874 12.76 92.045 13.208C92.5026 13.656 93.0497 13.88 93.6864 13.88C94.323 13.88 94.8602 13.656 95.2979 13.208C95.7555 12.76 95.9843 12.2053 95.9843 11.544C95.9843 10.8613 95.7555 10.3067 95.2979 9.88C94.8602 9.432 94.323 9.208 93.6864 9.208C93.0497 9.208 92.5026 9.432 92.045 9.88C91.5874 10.3067 91.3586 10.8613 91.3586 11.544ZM91.7764 17.24V31.96H95.5366V17.24H91.7764Z" fill="black"/>
<path d="M103.43 39V17.24H99.5501V39H103.43ZM114.71 24.6C114.71 22.9147 114.402 21.496 113.785 20.344C113.169 19.1707 112.353 18.2853 111.338 17.688C110.343 17.0907 109.269 16.792 108.115 16.792C106.941 16.792 105.917 17.112 105.041 17.752C104.186 18.392 103.519 19.2987 103.042 20.472C102.584 21.624 102.355 23 102.355 24.6C102.355 26.1787 102.584 27.5547 103.042 28.728C103.519 29.9013 104.186 30.808 105.041 31.448C105.917 32.088 106.941 32.408 108.115 32.408C109.269 32.408 110.343 32.1093 111.338 31.512C112.353 30.9147 113.169 30.0293 113.785 28.856C114.402 27.6827 114.71 26.264 114.71 24.6ZM110.711 24.6C110.711 25.4747 110.542 26.2213 110.204 26.84C109.866 27.4587 109.408 27.928 108.831 28.248C108.274 28.568 107.657 28.728 106.981 28.728C106.404 28.728 105.837 28.5787 105.28 28.28C104.743 27.96 104.295 27.4907 103.937 26.872C103.599 26.2533 103.43 25.496 103.43 24.6C103.43 23.704 103.599 22.9467 103.937 22.328C104.295 21.7093 104.743 21.2507 105.28 20.952C105.837 20.632 106.404 20.472 106.981 20.472C107.657 20.472 108.274 20.632 108.831 20.952C109.408 21.272 109.866 21.7413 110.204 22.36C110.542 22.9787 110.711 23.7253 110.711 24.6Z" fill="black"/>
<path d="M117.413 11.544C117.413 12.2053 117.642 12.76 118.099 13.208C118.557 13.656 119.104 13.88 119.741 13.88C120.378 13.88 120.915 13.656 121.352 13.208C121.81 12.76 122.039 12.2053 122.039 11.544C122.039 10.8613 121.81 10.3067 121.352 9.88C120.915 9.432 120.378 9.208 119.741 9.208C119.104 9.208 118.557 9.432 118.099 9.88C117.642 10.3067 117.413 10.8613 117.413 11.544ZM117.831 17.24V31.96H121.591V17.24H117.831Z" fill="black"/>
<path d="M126.381 26.872L124.5 29.464C125.018 29.9973 125.595 30.4987 126.231 30.968C126.888 31.416 127.614 31.7787 128.41 32.056C129.226 32.3333 130.121 32.472 131.096 32.472C132.667 32.472 133.901 32.0667 134.796 31.256C135.692 30.424 136.139 29.272 136.139 27.8C136.139 26.904 135.95 26.1787 135.572 25.624C135.194 25.0693 134.687 24.6107 134.05 24.248C133.433 23.864 132.757 23.5227 132.021 23.224C131.424 22.9467 130.887 22.712 130.409 22.52C129.952 22.328 129.594 22.1147 129.335 21.88C129.096 21.624 128.977 21.336 128.977 21.016C128.977 20.6533 129.096 20.3867 129.335 20.216C129.594 20.024 129.942 19.928 130.379 19.928C131.036 19.928 131.703 20.1093 132.379 20.472C133.075 20.8347 133.672 21.304 134.17 21.88L135.871 19.32C135.433 18.8507 134.926 18.4453 134.349 18.104C133.772 17.7413 133.145 17.4533 132.469 17.24C131.792 17.0267 131.066 16.92 130.29 16.92C129.375 16.92 128.539 17.08 127.783 17.4C127.047 17.6987 126.46 18.1573 126.022 18.776C125.585 19.3733 125.366 20.1093 125.366 20.984C125.366 21.9013 125.555 22.6587 125.933 23.256C126.331 23.832 126.828 24.3013 127.425 24.664C128.022 25.0053 128.639 25.304 129.275 25.56C129.952 25.7947 130.509 26.0187 130.947 26.232C131.384 26.4453 131.712 26.6907 131.931 26.968C132.17 27.224 132.289 27.544 132.289 27.928C132.289 28.3547 132.15 28.696 131.872 28.952C131.593 29.1867 131.195 29.304 130.678 29.304C130.28 29.304 129.852 29.2187 129.395 29.048C128.957 28.8773 128.489 28.6213 127.992 28.28C127.495 27.9173 126.957 27.448 126.381 26.872Z" fill="black"/>
<path d="M141.733 24.6C141.733 23.768 141.912 23.032 142.271 22.392C142.629 21.752 143.106 21.2507 143.703 20.888C144.32 20.504 144.996 20.312 145.732 20.312C146.289 20.312 146.847 20.408 147.404 20.6C147.961 20.792 148.468 21.0693 148.926 21.432C149.403 21.7733 149.761 22.1787 150 22.648V18.392C149.523 17.944 148.896 17.592 148.12 17.336C147.364 17.0587 146.479 16.92 145.464 16.92C144.011 16.92 142.698 17.24 141.525 17.88C140.371 18.52 139.455 19.416 138.779 20.568C138.122 21.72 137.794 23.064 137.794 24.6C137.794 26.1147 138.122 27.4587 138.779 28.632C139.455 29.784 140.371 30.68 141.525 31.32C142.698 31.96 144.011 32.28 145.464 32.28C146.479 32.28 147.364 32.152 148.12 31.896C148.896 31.6187 149.523 31.2453 150 30.776V26.52C149.761 26.9893 149.413 27.4053 148.955 27.768C148.518 28.1093 148.02 28.3867 147.463 28.6C146.906 28.792 146.329 28.888 145.732 28.888C144.996 28.888 144.32 28.7067 143.703 28.344C143.106 27.9813 142.629 27.48 142.271 26.84C141.912 26.2 141.733 25.4533 141.733 24.6Z" fill="black"/>
<g clip-path="url(#clip0_181_25)">
<path d="M20.5 0C9.17702 0 0 9.52217 0 21.271H41C41 9.52217 31.8192 0 20.5 0Z" fill="black"/>
<path d="M38.7558 23.7332C38.7558 34.1805 30.5649 42.6756 20.5 42.6756C10.4313 42.6756 2.24419 34.1766 2.24419 23.7332H0C0 35.4624 9.19591 45.0042 20.5 45.0042C31.8041 45.0042 41 35.4624 41 23.7332H38.7558Z" fill="black"/>
<path d="M20.5001 39.6764C28.9744 39.6764 35.8694 32.522 35.8694 23.729H33.6252C33.6252 31.2401 27.7351 37.3478 20.5001 37.3478C13.2612 37.3478 7.37494 31.2362 7.37494 23.729H5.13452C5.13074 32.5259 12.0258 39.6764 20.5001 39.6764Z" fill="black"/>
</g>
<defs>
<clipPath id="clip0_181_25">
<rect width="41" height="45" fill="white"/>
</clipPath>
</defs>
</svg>
