<svg width="220" height="46" viewBox="0 0 220 46" fill="none" xmlns="http://www.w3.org/2000/svg">
<path d="M52.6796 32.0799C52.5212 31.6938 39.3649 5.62874 39.152 5.27236C38.4591 3.61421 37.2464 2.15404 35.5734 1.17895C31.4849 -1.21671 26.2333 0.154359 23.8376 4.24281C22.1943 7.04434 22.323 10.4002 23.8871 12.9988C24.0455 13.3849 36.6376 38.3314 36.8504 38.6927C37.0088 39.0788 37.1969 39.45 37.4147 39.8114C38.1076 41.4695 39.3203 42.9297 40.9933 43.9048C45.0818 46.3004 50.3334 44.9294 52.7291 40.8409C54.3724 38.0344 54.2437 34.6835 52.6796 32.0799Z" fill="#333333"/>
<path d="M37.489 14.4442C38.9294 12.9098 39.8104 10.8458 39.8104 8.57882C39.8104 3.84195 35.9695 0.000976562 31.2326 0.000976562C28.3172 0.000976562 25.7483 1.45621 24.1991 3.67368C23.917 3.97561 2.559 30.2981 2.32141 30.6347C0.881047 32.1691 0 34.2331 0 36.505C0 41.2419 3.84097 45.0829 8.57783 45.0829C11.4932 45.0829 14.0621 43.6277 15.6114 41.4102C15.8935 41.1033 37.2514 14.7808 37.489 14.4442Z" fill="black"/>
<path d="M74.2456 14.4442C75.686 12.9098 76.567 10.8458 76.567 8.57882C76.567 3.84195 72.7261 0.000976562 67.9892 0.000976562C65.0738 0.000976562 62.5049 1.45621 60.9557 3.67368C60.6735 3.97561 39.3156 30.2981 39.078 30.6347C37.6376 32.1691 36.7566 34.2331 36.7566 36.5001C36.7566 41.2369 40.5976 45.0779 45.3344 45.0779C48.2498 45.0779 50.8187 43.6227 52.3679 41.4052C52.6501 41.1033 74.008 14.7808 74.2456 14.4442Z" fill="black"/>
<path d="M120.374 11.0686L114.045 33.723H108.69L104.438 17.5923L99.9915 33.723L94.6686 33.7554L88.5669 11.0686H93.4353L97.4274 28.6598L102.036 11.0686H107.099L111.448 28.5625L115.473 11.0686H120.374Z" fill="black"/>
<path d="M131.325 34.0151C129.594 34.0151 128.036 33.6364 126.651 32.8791C125.267 32.1002 124.174 31.0075 123.373 29.6011C122.594 28.1946 122.205 26.5718 122.205 24.7326C122.205 22.8935 122.605 21.2706 123.406 19.8642C124.228 18.4578 125.342 17.3759 126.749 16.6186C128.155 15.8397 129.724 15.4502 131.455 15.4502C133.186 15.4502 134.755 15.8397 136.161 16.6186C137.567 17.3759 138.671 18.4578 139.472 19.8642C140.294 21.2706 140.705 22.8935 140.705 24.7326C140.705 26.5718 140.283 28.1946 139.439 29.6011C138.617 31.0075 137.492 32.1002 136.064 32.8791C134.657 33.6364 133.078 34.0151 131.325 34.0151ZM131.325 30.0554C132.147 30.0554 132.915 29.8607 133.629 29.4712C134.365 29.0601 134.949 28.4543 135.382 27.6537C135.815 26.8531 136.031 25.8794 136.031 24.7326C136.031 23.0233 135.577 21.7142 134.668 20.8054C133.781 19.875 132.688 19.4098 131.39 19.4098C130.092 19.4098 128.999 19.875 128.112 20.8054C127.246 21.7142 126.814 23.0233 126.814 24.7326C126.814 26.442 127.236 27.7619 128.079 28.6923C128.945 29.6011 130.027 30.0554 131.325 30.0554Z" fill="black"/>
<path d="M154.002 15.4826C156.144 15.4826 157.875 16.1642 159.195 17.5274C160.515 18.8689 161.175 20.7514 161.175 23.1747V33.723H156.631V23.7914C156.631 22.3633 156.274 21.2707 155.56 20.5133C154.846 19.7344 153.872 19.3449 152.639 19.3449C151.384 19.3449 150.389 19.7344 149.653 20.5133C148.939 21.2707 148.582 22.3633 148.582 23.7914V33.723H144.038V15.7423H148.582V17.9818C149.188 17.2028 149.956 16.597 150.886 16.1642C151.838 15.7098 152.877 15.4826 154.002 15.4826Z" fill="black"/>
<path d="M172.377 34.0151C170.905 34.0151 169.585 33.7554 168.417 33.2361C167.248 32.6952 166.318 31.9704 165.626 31.0616C164.955 30.1528 164.587 29.1467 164.522 28.0432H169.098C169.185 28.7356 169.52 29.309 170.105 29.7633C170.71 30.2177 171.457 30.4449 172.344 30.4449C173.21 30.4449 173.88 30.2718 174.356 29.9256C174.854 29.5794 175.103 29.1359 175.103 28.5949C175.103 28.0107 174.8 27.578 174.194 27.2967C173.61 26.9937 172.669 26.6692 171.37 26.323C170.029 25.9984 168.925 25.663 168.06 25.3168C167.216 24.9706 166.48 24.4405 165.853 23.7265C165.247 23.0125 164.944 22.0496 164.944 20.8379C164.944 19.8426 165.225 18.9338 165.788 18.1116C166.372 17.2894 167.194 16.6402 168.255 16.1642C169.336 15.6882 170.602 15.4502 172.052 15.4502C174.194 15.4502 175.903 15.9911 177.18 17.073C178.457 18.1332 179.16 19.5721 179.29 21.3897H174.941C174.876 20.6756 174.573 20.113 174.032 19.7019C173.512 19.2692 172.809 19.0528 171.922 19.0528C171.1 19.0528 170.462 19.2043 170.007 19.5072C169.574 19.8101 169.358 20.2321 169.358 20.773C169.358 21.3788 169.661 21.844 170.267 22.1686C170.873 22.4715 171.814 22.7853 173.091 23.1098C174.389 23.4344 175.46 23.7698 176.304 24.116C177.148 24.4622 177.872 25.0031 178.478 25.7388C179.106 26.4528 179.43 27.4049 179.452 28.5949C179.452 29.6335 179.16 30.5639 178.576 31.3861C178.013 32.2084 177.191 32.8575 176.109 33.3335C175.049 33.7879 173.805 34.0151 172.377 34.0151Z" fill="black"/>
<path d="M199.897 24.3432C199.897 24.9923 199.853 25.5765 199.767 26.0958H186.622C186.73 27.394 187.185 28.411 187.985 29.1467C188.786 29.8823 189.77 30.2502 190.939 30.2502C192.627 30.2502 193.827 29.5253 194.542 28.0756H199.442C198.923 29.8066 197.928 31.2347 196.456 32.3598C194.985 33.4633 193.178 34.0151 191.036 34.0151C189.305 34.0151 187.747 33.6364 186.363 32.8791C184.999 32.1002 183.928 31.0075 183.149 29.6011C182.392 28.1946 182.013 26.5718 182.013 24.7326C182.013 22.8718 182.392 21.2382 183.149 19.8318C183.907 18.4253 184.967 17.3435 186.33 16.5861C187.693 15.8288 189.262 15.4502 191.036 15.4502C192.746 15.4502 194.271 15.818 195.613 16.5537C196.976 17.2894 198.025 18.3388 198.761 19.7019C199.518 21.0435 199.897 22.5905 199.897 24.3432ZM195.191 23.0449C195.169 21.8765 194.747 20.9461 193.925 20.2537C193.103 19.5397 192.096 19.1826 190.906 19.1826C189.781 19.1826 188.829 19.5288 188.05 20.2212C187.293 20.892 186.828 21.8332 186.655 23.0449H195.191Z" fill="black"/>
<path d="M202.045 24.7326C202.045 22.8718 202.424 21.249 203.181 19.8642C203.938 18.4578 204.988 17.3759 206.329 16.6186C207.671 15.8397 209.207 15.4502 210.938 15.4502C213.167 15.4502 215.006 16.0128 216.455 17.1379C217.927 18.2414 218.911 19.7993 219.409 21.8116H214.508C214.248 21.0326 213.805 20.4268 213.177 19.994C212.572 19.5397 211.814 19.3125 210.905 19.3125C209.607 19.3125 208.579 19.7885 207.822 20.7405C207.065 21.6709 206.686 23.0016 206.686 24.7326C206.686 26.442 207.065 27.7727 207.822 28.7247C208.579 29.6552 209.607 30.1204 210.905 30.1204C212.745 30.1204 213.946 29.2981 214.508 27.6537H219.409C218.911 29.6011 217.927 31.1481 216.455 32.2949C214.984 33.4417 213.145 34.0151 210.938 34.0151C209.207 34.0151 207.671 33.6364 206.329 32.8791C204.988 32.1002 203.938 31.0183 203.181 29.6335C202.424 28.2271 202.045 26.5935 202.045 24.7326Z" fill="black"/>
</svg>
