<svg width="199" height="45" viewBox="0 0 199 45" fill="none" xmlns="http://www.w3.org/2000/svg">
<g clip-path="url(#clip0_181_10)">
<path d="M22.2549 44.3567C9.9629 44.3567 0 34.1747 0 21.6123V0C12.292 0 22.2549 10.1821 22.2549 22.7445V44.3567Z" fill="black"/>
<path d="M24.2058 25.9672V14.4906C24.2058 6.48793 30.5541 0 38.3845 0V11.4804C38.3845 19.4831 32.0362 25.9672 24.2058 25.9672Z" fill="black"/>
<path d="M56.2574 44.3567H39.9991C31.2764 44.3567 24.2097 37.1307 24.2097 28.22H40.468C49.1869 28.22 56.2574 35.446 56.2574 44.3567Z" fill="black"/>
</g>
<path d="M99.965 10.8186L93.636 33.473H88.2808L84.029 17.3423L79.5825 33.473L74.2597 33.5054L68.158 10.8186H73.0264L77.0185 28.4098L81.6273 10.8186H86.6904L91.0395 28.3125L95.0641 10.8186H99.965Z" fill="black"/>
<path d="M110.916 33.7651C109.185 33.7651 107.627 33.3864 106.242 32.6291C104.858 31.8502 103.765 30.7575 102.964 29.3511C102.185 27.9446 101.796 26.3218 101.796 24.4826C101.796 22.6435 102.196 21.0206 102.997 19.6142C103.819 18.2078 104.933 17.1259 106.34 16.3686C107.746 15.5897 109.315 15.2002 111.046 15.2002C112.777 15.2002 114.346 15.5897 115.752 16.3686C117.159 17.1259 118.262 18.2078 119.063 19.6142C119.885 21.0206 120.296 22.6435 120.296 24.4826C120.296 26.3218 119.874 27.9446 119.03 29.3511C118.208 30.7575 117.083 31.8502 115.655 32.6291C114.248 33.3864 112.669 33.7651 110.916 33.7651ZM110.916 29.8054C111.738 29.8054 112.506 29.6107 113.221 29.2212C113.956 28.8101 114.54 28.2043 114.973 27.4037C115.406 26.6031 115.622 25.6294 115.622 24.4826C115.622 22.7733 115.168 21.4642 114.259 20.5554C113.372 19.625 112.279 19.1598 110.981 19.1598C109.683 19.1598 108.59 19.625 107.703 20.5554C106.837 21.4642 106.405 22.7733 106.405 24.4826C106.405 26.192 106.827 27.5119 107.671 28.4423C108.536 29.3511 109.618 29.8054 110.916 29.8054Z" fill="black"/>
<path d="M133.593 15.2326C135.735 15.2326 137.466 15.9142 138.786 17.2774C140.106 18.6189 140.766 20.5014 140.766 22.9247V33.473H136.222V23.5414C136.222 22.1133 135.865 21.0207 135.151 20.2633C134.437 19.4844 133.463 19.0949 132.23 19.0949C130.975 19.0949 129.98 19.4844 129.244 20.2633C128.53 21.0207 128.173 22.1133 128.173 23.5414V33.473H123.629V15.4923H128.173V17.7318C128.779 16.9528 129.547 16.347 130.477 15.9142C131.429 15.4598 132.468 15.2326 133.593 15.2326Z" fill="black"/>
<path d="M151.968 33.7651C150.496 33.7651 149.176 33.5054 148.008 32.9861C146.839 32.4452 145.909 31.7204 145.217 30.8116C144.546 29.9028 144.178 28.8967 144.113 27.7932H148.689C148.776 28.4856 149.111 29.059 149.696 29.5133C150.301 29.9677 151.048 30.1949 151.935 30.1949C152.801 30.1949 153.471 30.0218 153.947 29.6756C154.445 29.3294 154.694 28.8859 154.694 28.3449C154.694 27.7607 154.391 27.328 153.785 27.0467C153.201 26.7437 152.26 26.4192 150.961 26.073C149.62 25.7484 148.516 25.413 147.651 25.0668C146.807 24.7206 146.071 24.1905 145.444 23.4765C144.838 22.7625 144.535 21.7996 144.535 20.5879C144.535 19.5926 144.816 18.6838 145.379 17.8616C145.963 17.0394 146.785 16.3902 147.846 15.9142C148.928 15.4382 150.193 15.2002 151.643 15.2002C153.785 15.2002 155.494 15.7411 156.771 16.823C158.048 17.8832 158.751 19.3221 158.881 21.1397H154.532C154.467 20.4256 154.164 19.863 153.623 19.4519C153.104 19.0192 152.4 18.8028 151.513 18.8028C150.691 18.8028 150.053 18.9543 149.598 19.2572C149.166 19.5601 148.949 19.9821 148.949 20.523C148.949 21.1288 149.252 21.594 149.858 21.9186C150.464 22.2215 151.405 22.5353 152.682 22.8598C153.98 23.1844 155.051 23.5198 155.895 23.866C156.739 24.2122 157.463 24.7531 158.069 25.4888C158.697 26.2028 159.021 27.1549 159.043 28.3449C159.043 29.3835 158.751 30.3139 158.167 31.1361C157.604 31.9584 156.782 32.6075 155.7 33.0835C154.64 33.5379 153.396 33.7651 151.968 33.7651Z" fill="black"/>
<path d="M179.488 24.0932C179.488 24.7423 179.445 25.3265 179.358 25.8458H166.213C166.321 27.144 166.776 28.161 167.576 28.8967C168.377 29.6323 169.362 30.0002 170.53 30.0002C172.218 30.0002 173.419 29.2753 174.133 27.8256H179.033C178.514 29.5566 177.519 30.9847 176.047 32.1098C174.576 33.2133 172.769 33.7651 170.627 33.7651C168.896 33.7651 167.338 33.3864 165.954 32.6291C164.59 31.8502 163.519 30.7575 162.74 29.3511C161.983 27.9446 161.605 26.3218 161.605 24.4826C161.605 22.6218 161.983 20.9882 162.74 19.5818C163.498 18.1753 164.558 17.0935 165.921 16.3361C167.284 15.5788 168.853 15.2002 170.627 15.2002C172.337 15.2002 173.862 15.568 175.204 16.3037C176.567 17.0394 177.616 18.0888 178.352 19.4519C179.109 20.7935 179.488 22.3405 179.488 24.0932ZM174.782 22.7949C174.76 21.6265 174.338 20.6961 173.516 20.0037C172.694 19.2897 171.688 18.9326 170.497 18.9326C169.372 18.9326 168.42 19.2788 167.641 19.9712C166.884 20.642 166.419 21.5832 166.246 22.7949H174.782Z" fill="black"/>
<path d="M181.636 24.4826C181.636 22.6218 182.015 20.999 182.772 19.6142C183.529 18.2078 184.579 17.1259 185.92 16.3686C187.262 15.5897 188.798 15.2002 190.529 15.2002C192.758 15.2002 194.597 15.7628 196.047 16.8879C197.518 17.9914 198.502 19.5493 199 21.5616H194.099C193.84 20.7826 193.396 20.1768 192.768 19.744C192.163 19.2897 191.405 19.0625 190.497 19.0625C189.198 19.0625 188.171 19.5385 187.413 20.4905C186.656 21.4209 186.277 22.7516 186.277 24.4826C186.277 26.192 186.656 27.5227 187.413 28.4747C188.171 29.4052 189.198 29.8704 190.497 29.8704C192.336 29.8704 193.537 29.0481 194.099 27.4037H199C198.502 29.3511 197.518 30.8981 196.047 32.0449C194.575 33.1917 192.736 33.7651 190.529 33.7651C188.798 33.7651 187.262 33.3864 185.92 32.6291C184.579 31.8502 183.529 30.7683 182.772 29.3835C182.015 27.9771 181.636 26.3435 181.636 24.4826Z" fill="black"/>
<defs>
<clipPath id="clip0_181_10">
<rect width="56.2573" height="44.3567" fill="white"/>
</clipPath>
</defs>
</svg>
