<svg width="145" height="45" viewBox="0 0 145 45" fill="none" xmlns="http://www.w3.org/2000/svg">
<path d="M17.5572 0C7.85842 0 0 7.86195 0 17.5572C0 27.2559 7.86195 35.1144 17.5572 35.1144V45C17.5572 45 35.1144 38.7492 35.1144 17.5537C35.1144 7.86195 27.2559 0 17.5572 0ZM11.7894 17.5572C11.7894 14.3701 14.3701 11.7894 17.5572 11.7894C20.7443 11.7894 23.325 14.3701 23.325 17.5572C23.325 20.7443 20.7443 23.325 17.5572 23.325C14.3701 23.325 11.7894 20.7443 11.7894 17.5572Z" fill="black"/>
<path d="M50.1145 13.188H55.725V31.46H59.9926V13.188H65.633V9.06H50.1145V13.188Z" fill="black"/>
<path d="M78.0552 6.5V31.46H81.9348V6.5H78.0552ZM66.7745 24.1C66.7745 25.7213 67.0828 27.108 67.6996 28.26C68.3164 29.412 69.1321 30.2867 70.1467 30.884C71.1614 31.4813 72.2358 31.78 73.3698 31.78C74.5237 31.78 75.5384 31.4707 76.4138 30.852C77.3091 30.2333 78.0055 29.348 78.5028 28.196C79.0201 27.044 79.2788 25.6787 79.2788 24.1C79.2788 22.5 79.0201 21.1347 78.5028 20.004C78.0055 18.852 77.3091 17.9667 76.4138 17.348C75.5384 16.7293 74.5237 16.42 73.3698 16.42C72.2358 16.42 71.1614 16.7187 70.1467 17.316C69.1321 17.9133 68.3164 18.788 67.6996 19.94C67.0828 21.0707 66.7745 22.4573 66.7745 24.1ZM70.7735 24.1C70.7735 23.2253 70.9426 22.468 71.2808 21.828C71.619 21.188 72.0766 20.6973 72.6536 20.356C73.2305 20.0147 73.8473 19.844 74.5039 19.844C75.0808 19.844 75.6379 20.0147 76.1751 20.356C76.7321 20.676 77.1798 21.156 77.518 21.796C77.8761 22.436 78.0552 23.204 78.0552 24.1C78.0552 24.996 77.8761 25.764 77.518 26.404C77.1798 27.044 76.7321 27.5347 76.1751 27.876C75.6379 28.196 75.0808 28.356 74.5039 28.356C73.8473 28.356 73.2305 28.1853 72.6536 27.844C72.0766 27.5027 71.619 27.012 71.2808 26.372C70.9426 25.732 70.7735 24.9747 70.7735 24.1Z" fill="black"/>
<path d="M85.4731 11.044C85.4731 11.7053 85.7019 12.26 86.1595 12.708C86.6171 13.156 87.1642 13.38 87.8009 13.38C88.4375 13.38 88.9747 13.156 89.4124 12.708C89.87 12.26 90.0988 11.7053 90.0988 11.044C90.0988 10.3613 89.87 9.80667 89.4124 9.38C88.9747 8.932 88.4375 8.708 87.8009 8.708C87.1642 8.708 86.6171 8.932 86.1595 9.38C85.7019 9.80667 85.4731 10.3613 85.4731 11.044ZM85.8909 16.74V31.46H89.6511V16.74H85.8909Z" fill="black"/>
<path d="M97.5442 38.5V16.74H93.6646V38.5H97.5442ZM108.825 24.1C108.825 22.4147 108.517 20.996 107.9 19.844C107.283 18.6707 106.467 17.7853 105.453 17.188C104.458 16.5907 103.384 16.292 102.23 16.292C101.056 16.292 100.031 16.612 99.1557 17.252C98.3002 17.892 97.6337 18.7987 97.1562 19.972C96.6986 21.124 96.4698 22.5 96.4698 24.1C96.4698 25.6787 96.6986 27.0547 97.1562 28.228C97.6337 29.4013 98.3002 30.308 99.1557 30.948C100.031 31.588 101.056 31.908 102.23 31.908C103.384 31.908 104.458 31.6093 105.453 31.012C106.467 30.4147 107.283 29.5293 107.9 28.356C108.517 27.1827 108.825 25.764 108.825 24.1ZM104.826 24.1C104.826 24.9747 104.657 25.7213 104.319 26.34C103.98 26.9587 103.523 27.428 102.946 27.748C102.389 28.068 101.772 28.228 101.096 28.228C100.519 28.228 99.9515 28.0787 99.3945 27.78C98.8573 27.46 98.4096 26.9907 98.0515 26.372C97.7133 25.7533 97.5442 24.996 97.5442 24.1C97.5442 23.204 97.7133 22.4467 98.0515 21.828C98.4096 21.2093 98.8573 20.7507 99.3945 20.452C99.9515 20.132 100.519 19.972 101.096 19.972C101.772 19.972 102.389 20.132 102.946 20.452C103.523 20.772 103.98 21.2413 104.319 21.86C104.657 22.4787 104.826 23.2253 104.826 24.1Z" fill="black"/>
<path d="M111.528 11.044C111.528 11.7053 111.756 12.26 112.214 12.708C112.672 13.156 113.219 13.38 113.855 13.38C114.492 13.38 115.029 13.156 115.467 12.708C115.924 12.26 116.153 11.7053 116.153 11.044C116.153 10.3613 115.924 9.80667 115.467 9.38C115.029 8.932 114.492 8.708 113.855 8.708C113.219 8.708 112.672 8.932 112.214 9.38C111.756 9.80667 111.528 10.3613 111.528 11.044ZM111.945 16.74V31.46H115.706V16.74H111.945Z" fill="black"/>
<path d="M120.495 26.372L118.615 28.964C119.132 29.4973 119.709 29.9987 120.346 30.468C121.002 30.916 121.729 31.2787 122.524 31.556C123.34 31.8333 124.235 31.972 125.21 31.972C126.782 31.972 128.015 31.5667 128.911 30.756C129.806 29.924 130.254 28.772 130.254 27.3C130.254 26.404 130.065 25.6787 129.687 25.124C129.309 24.5693 128.801 24.1107 128.165 23.748C127.548 23.364 126.872 23.0227 126.135 22.724C125.539 22.4467 125.001 22.212 124.524 22.02C124.066 21.828 123.708 21.6147 123.449 21.38C123.211 21.124 123.091 20.836 123.091 20.516C123.091 20.1533 123.211 19.8867 123.449 19.716C123.708 19.524 124.056 19.428 124.494 19.428C125.151 19.428 125.817 19.6093 126.493 19.972C127.19 20.3347 127.787 20.804 128.284 21.38L129.985 18.82C129.547 18.3507 129.04 17.9453 128.463 17.604C127.886 17.2413 127.259 16.9533 126.583 16.74C125.907 16.5267 125.18 16.42 124.404 16.42C123.489 16.42 122.654 16.58 121.898 16.9C121.162 17.1987 120.575 17.6573 120.137 18.276C119.699 18.8733 119.48 19.6093 119.48 20.484C119.48 21.4013 119.669 22.1587 120.047 22.756C120.445 23.332 120.943 23.8013 121.54 24.164C122.136 24.5053 122.753 24.804 123.39 25.06C124.066 25.2947 124.623 25.5187 125.061 25.732C125.499 25.9453 125.827 26.1907 126.046 26.468C126.285 26.724 126.404 27.044 126.404 27.428C126.404 27.8547 126.265 28.196 125.986 28.452C125.708 28.6867 125.31 28.804 124.792 28.804C124.395 28.804 123.967 28.7187 123.509 28.548C123.071 28.3773 122.604 28.1213 122.107 27.78C121.609 27.4173 121.072 26.948 120.495 26.372Z" fill="black"/>
<path d="M135.848 24.1C135.848 23.268 136.027 22.532 136.385 21.892C136.743 21.252 137.221 20.7507 137.818 20.388C138.434 20.004 139.111 19.812 139.847 19.812C140.404 19.812 140.961 19.908 141.518 20.1C142.075 20.292 142.583 20.5693 143.04 20.932C143.518 21.2733 143.876 21.6787 144.115 22.148V17.892C143.637 17.444 143.01 17.092 142.234 16.836C141.478 16.5587 140.593 16.42 139.578 16.42C138.126 16.42 136.813 16.74 135.639 17.38C134.485 18.02 133.57 18.916 132.893 20.068C132.237 21.22 131.909 22.564 131.909 24.1C131.909 25.6147 132.237 26.9587 132.893 28.132C133.57 29.284 134.485 30.18 135.639 30.82C136.813 31.46 138.126 31.78 139.578 31.78C140.593 31.78 141.478 31.652 142.234 31.396C143.01 31.1187 143.637 30.7453 144.115 30.276V26.02C143.876 26.4893 143.528 26.9053 143.07 27.268C142.632 27.6093 142.135 27.8867 141.578 28.1C141.021 28.292 140.444 28.388 139.847 28.388C139.111 28.388 138.434 28.2067 137.818 27.844C137.221 27.4813 136.743 26.98 136.385 26.34C136.027 25.7 135.848 24.9533 135.848 24.1Z" fill="black"/>
</svg>
