<svg width="172" height="45" viewBox="0 0 172 45" fill="none" xmlns="http://www.w3.org/2000/svg">
<path d="M25.8831 22.6031C25.8831 30.1675 29.6867 36.8604 35.4781 40.8701C41.2351 36.796 44.9958 30.0859 44.9958 22.4958C44.9958 14.97 41.2952 8.31147 35.6198 4.22876C29.7511 8.2299 25.8831 14.9743 25.8831 22.6031Z" fill="black"/>
<path d="M22.7833 22.603C22.7833 14.4076 26.7029 7.10934 32.7647 2.48141C29.6866 0.901558 26.2006 0 22.5 0C10.0759 0 0 10.0716 0 22.5C0 34.9285 10.0716 45 22.5 45C26.1362 45 29.5664 44.1328 32.6059 42.6002C26.6385 37.9636 22.7833 30.7255 22.7833 22.603Z" fill="black"/>
<path d="M48.0997 44.695C35.916 44.695 26.0076 34.7824 26.0076 22.6029C26.0076 10.4192 35.9203 0.510742 48.0997 0.510742C60.2835 0.510742 70.1919 10.4235 70.1919 22.6029C70.1919 34.7824 60.2792 44.695 48.0997 44.695ZM48.0997 3.60606C37.6246 3.60606 29.1072 12.1278 29.1072 22.5986C29.1072 33.0737 37.6289 41.5912 48.0997 41.5912C58.5748 41.5912 67.0966 33.0694 67.0966 22.5986C67.0923 12.1278 58.5705 3.60606 48.0997 3.60606Z" fill="black"/>
<path d="M87.5836 32.2338H81.1919V12.7662H87.7126C89.5853 12.7662 91.1939 13.1559 92.5386 13.9354C93.8894 14.7085 94.9271 15.8207 95.6516 17.2719C96.3761 18.7231 96.7384 20.4594 96.7384 22.481C96.7384 24.5089 96.373 26.2516 95.6424 27.7091C94.9178 29.1667 93.871 30.2852 92.5018 31.0646C91.1387 31.8441 89.4993 32.2338 87.5836 32.2338ZM84.6088 29.1825H87.4178C88.7318 29.1825 89.8278 28.9354 90.7058 28.4411C91.5838 27.9404 92.2439 27.1958 92.686 26.2072C93.128 25.2123 93.3491 23.9702 93.3491 22.481C93.3491 20.9918 93.128 19.756 92.686 18.7738C92.2439 17.7852 91.59 17.0469 90.7242 16.5589C89.8646 16.0646 88.7963 15.8175 87.5192 15.8175H84.6088V29.1825Z" fill="black"/>
<path d="M116.839 22.5C116.839 24.5976 116.458 26.3942 115.697 27.8897C114.942 29.379 113.91 30.5196 112.603 31.3118C111.301 32.1039 109.824 32.5 108.173 32.5C106.521 32.5 105.041 32.1039 103.733 31.3118C102.432 30.5133 101.4 29.3695 100.639 27.8802C99.8836 26.3847 99.506 24.5913 99.506 22.5C99.506 20.4024 99.8836 18.609 100.639 17.1198C101.4 15.6242 102.432 14.4804 103.733 13.6882C105.041 12.8961 106.521 12.5 108.173 12.5C109.824 12.5 111.301 12.8961 112.603 13.6882C113.91 14.4804 114.942 15.6242 115.697 17.1198C116.458 18.609 116.839 20.4024 116.839 22.5ZM113.404 22.5C113.404 21.0234 113.18 19.7782 112.731 18.7643C112.289 17.744 111.675 16.974 110.889 16.4544C110.104 15.9284 109.198 15.6654 108.173 15.6654C107.147 15.6654 106.242 15.9284 105.456 16.4544C104.67 16.974 104.053 17.744 103.604 18.7643C103.162 19.7782 102.941 21.0234 102.941 22.5C102.941 23.9766 103.162 25.225 103.604 26.2452C104.053 27.2592 104.67 28.0292 105.456 28.5551C106.242 29.0748 107.147 29.3346 108.173 29.3346C109.198 29.3346 110.104 29.0748 110.889 28.5551C111.675 28.0292 112.289 27.2592 112.731 26.2452C113.18 25.225 113.404 23.9766 113.404 22.5Z" fill="black"/>
<path d="M135.57 12.7662V32.2338H132.531L123.643 18.9734H123.486V32.2338H120.07V12.7662H123.127L132.006 26.0361H132.171V12.7662H135.57Z" fill="black"/>
<path d="M139.293 32.2338V12.7662H151.561V15.7224H142.71V21.0076H150.925V23.9639H142.71V29.2776H151.634V32.2338H139.293Z" fill="black"/>
<path d="M171.192 19.3346H167.747C167.649 18.7516 167.468 18.2351 167.204 17.7852C166.94 17.3289 166.611 16.9423 166.218 16.6255C165.826 16.3086 165.377 16.071 164.874 15.9125C164.377 15.7478 163.839 15.6654 163.262 15.6654C162.237 15.6654 161.328 15.9316 160.536 16.4639C159.744 16.9899 159.124 17.763 158.676 18.7833C158.227 19.7972 158.003 21.0361 158.003 22.5C158.003 23.9892 158.227 25.244 158.676 26.2643C159.13 27.2782 159.75 28.045 160.536 28.5646C161.328 29.0779 162.234 29.3346 163.253 29.3346C163.818 29.3346 164.346 29.2586 164.837 29.1065C165.334 28.948 165.779 28.7167 166.172 28.4125C166.572 28.1084 166.906 27.7345 167.176 27.2909C167.453 26.8473 167.643 26.3403 167.747 25.77L171.192 25.789C171.063 26.7142 170.784 27.5824 170.354 28.3935C169.93 29.2047 169.374 29.9208 168.687 30.5418C167.999 31.1565 167.195 31.6381 166.274 31.9867C165.353 32.3289 164.33 32.5 163.207 32.5C161.549 32.5 160.069 32.1039 158.768 31.3118C157.466 30.5196 156.441 29.3758 155.691 27.8802C154.942 26.3847 154.568 24.5913 154.568 22.5C154.568 20.4024 154.945 18.609 155.701 17.1198C156.456 15.6242 157.484 14.4804 158.786 13.6882C160.088 12.8961 161.561 12.5 163.207 12.5C164.257 12.5 165.233 12.6521 166.136 12.9563C167.038 13.2605 167.843 13.7072 168.549 14.2966C169.255 14.8796 169.835 15.5957 170.289 16.4449C170.75 17.2877 171.051 18.251 171.192 19.3346Z" fill="black"/>
</svg>
