<svg width="159" height="45" viewBox="0 0 159 45" fill="none" xmlns="http://www.w3.org/2000/svg">
<path d="M37.1061 0.000326572C32.9396 -0.02495 29.2324 2.1362 26.9154 5.48534L35.0292 14.9261C35.6779 15.6802 35.5937 16.8219 34.8354 17.4707C34.4941 17.7613 34.0771 17.9046 33.66 17.9046C33.1545 17.9046 32.649 17.6897 32.2909 17.2769C29.8728 14.4627 27.4546 11.6486 25.0407 8.8387C23.7095 7.2884 22.374 5.73811 21.0428 4.1836C20.0739 3.05458 19.2018 1.80339 17.8369 1.11671C16.2908 0.34156 14.4751 -0.0123117 12.7563 0.000326572C4.55406 0.0508797 -1.48284 9.12517 0.320223 17.6139C1.22175 21.8435 4.25494 25.2853 6.66464 28.6092C9.74417 32.8557 15.7473 38.8757 20.0317 42.9874C22.8248 45.6709 27.0333 45.6709 29.8264 42.9874C34.1108 38.8757 40.114 32.8557 43.1935 28.6092C45.6032 25.2853 48.6406 21.8477 49.5379 17.6139C51.3452 9.12517 45.3083 0.0508797 37.1061 0.000326572Z" fill="black"/>
<path d="M64.8594 13.188H70.4699V31.46H74.7375V13.188H80.3778V9.06H64.8594V13.188Z" fill="black"/>
<path d="M92.8001 6.5V31.46H96.6797V6.5H92.8001ZM81.5193 24.1C81.5193 25.7213 81.8277 27.108 82.4445 28.26C83.0612 29.412 83.8769 30.2867 84.8916 30.884C85.9063 31.4813 86.9806 31.78 88.1147 31.78C89.2686 31.78 90.2833 31.4707 91.1587 30.852C92.054 30.2333 92.7503 29.348 93.2477 28.196C93.765 27.044 94.0236 25.6787 94.0236 24.1C94.0236 22.5 93.765 21.1347 93.2477 20.004C92.7503 18.852 92.054 17.9667 91.1587 17.348C90.2833 16.7293 89.2686 16.42 88.1147 16.42C86.9806 16.42 85.9063 16.7187 84.8916 17.316C83.8769 17.9133 83.0612 18.788 82.4445 19.94C81.8277 21.0707 81.5193 22.4573 81.5193 24.1ZM85.5183 24.1C85.5183 23.2253 85.6874 22.468 86.0257 21.828C86.3639 21.188 86.8215 20.6973 87.3984 20.356C87.9754 20.0147 88.5922 19.844 89.2487 19.844C89.8257 19.844 90.3828 20.0147 90.9199 20.356C91.477 20.676 91.9247 21.156 92.2629 21.796C92.621 22.436 92.8001 23.204 92.8001 24.1C92.8001 24.996 92.621 25.764 92.2629 26.404C91.9247 27.044 91.477 27.5347 90.9199 27.876C90.3828 28.196 89.8257 28.356 89.2487 28.356C88.5922 28.356 87.9754 28.1853 87.3984 27.844C86.8215 27.5027 86.3639 27.012 86.0257 26.372C85.6874 25.732 85.5183 24.9747 85.5183 24.1Z" fill="black"/>
<path d="M100.218 11.044C100.218 11.7053 100.447 12.26 100.904 12.708C101.362 13.156 101.909 13.38 102.546 13.38C103.182 13.38 103.72 13.156 104.157 12.708C104.615 12.26 104.844 11.7053 104.844 11.044C104.844 10.3613 104.615 9.80667 104.157 9.38C103.72 8.932 103.182 8.708 102.546 8.708C101.909 8.708 101.362 8.932 100.904 9.38C100.447 9.80667 100.218 10.3613 100.218 11.044ZM100.636 16.74V31.46H104.396V16.74H100.636Z" fill="black"/>
<path d="M112.289 38.5V16.74H108.409V38.5H112.289ZM123.57 24.1C123.57 22.4147 123.261 20.996 122.645 19.844C122.028 18.6707 121.212 17.7853 120.198 17.188C119.203 16.5907 118.128 16.292 116.974 16.292C115.801 16.292 114.776 16.612 113.901 17.252C113.045 17.892 112.379 18.7987 111.901 19.972C111.444 21.124 111.215 22.5 111.215 24.1C111.215 25.6787 111.444 27.0547 111.901 28.228C112.379 29.4013 113.045 30.308 113.901 30.948C114.776 31.588 115.801 31.908 116.974 31.908C118.128 31.908 119.203 31.6093 120.198 31.012C121.212 30.4147 122.028 29.5293 122.645 28.356C123.261 27.1827 123.57 25.764 123.57 24.1ZM119.571 24.1C119.571 24.9747 119.402 25.7213 119.063 26.34C118.725 26.9587 118.268 27.428 117.691 27.748C117.134 28.068 116.517 28.228 115.84 28.228C115.263 28.228 114.696 28.0787 114.139 27.78C113.602 27.46 113.155 26.9907 112.796 26.372C112.458 25.7533 112.289 24.996 112.289 24.1C112.289 23.204 112.458 22.4467 112.796 21.828C113.155 21.2093 113.602 20.7507 114.139 20.452C114.696 20.132 115.263 19.972 115.84 19.972C116.517 19.972 117.134 20.132 117.691 20.452C118.268 20.772 118.725 21.2413 119.063 21.86C119.402 22.4787 119.571 23.2253 119.571 24.1Z" fill="black"/>
<path d="M126.272 11.044C126.272 11.7053 126.501 12.26 126.959 12.708C127.416 13.156 127.964 13.38 128.6 13.38C129.237 13.38 129.774 13.156 130.212 12.708C130.669 12.26 130.898 11.7053 130.898 11.044C130.898 10.3613 130.669 9.80667 130.212 9.38C129.774 8.932 129.237 8.708 128.6 8.708C127.964 8.708 127.416 8.932 126.959 9.38C126.501 9.80667 126.272 10.3613 126.272 11.044ZM126.69 16.74V31.46H130.451V16.74H126.69Z" fill="black"/>
<path d="M135.24 26.372L133.36 28.964C133.877 29.4973 134.454 29.9987 135.091 30.468C135.747 30.916 136.473 31.2787 137.269 31.556C138.085 31.8333 138.98 31.972 139.955 31.972C141.527 31.972 142.76 31.5667 143.656 30.756C144.551 29.924 144.999 28.772 144.999 27.3C144.999 26.404 144.81 25.6787 144.432 25.124C144.054 24.5693 143.546 24.1107 142.91 23.748C142.293 23.364 141.616 23.0227 140.88 22.724C140.283 22.4467 139.746 22.212 139.269 22.02C138.811 21.828 138.453 21.6147 138.194 21.38C137.956 21.124 137.836 20.836 137.836 20.516C137.836 20.1533 137.956 19.8867 138.194 19.716C138.453 19.524 138.801 19.428 139.239 19.428C139.895 19.428 140.562 19.6093 141.238 19.972C141.935 20.3347 142.532 20.804 143.029 21.38L144.73 18.82C144.292 18.3507 143.785 17.9453 143.208 17.604C142.631 17.2413 142.004 16.9533 141.328 16.74C140.651 16.5267 139.925 16.42 139.149 16.42C138.234 16.42 137.399 16.58 136.643 16.9C135.906 17.1987 135.319 17.6573 134.882 18.276C134.444 18.8733 134.225 19.6093 134.225 20.484C134.225 21.4013 134.414 22.1587 134.792 22.756C135.19 23.332 135.688 23.8013 136.284 24.164C136.881 24.5053 137.498 24.804 138.135 25.06C138.811 25.2947 139.368 25.5187 139.806 25.732C140.244 25.9453 140.572 26.1907 140.791 26.468C141.029 26.724 141.149 27.044 141.149 27.428C141.149 27.8547 141.01 28.196 140.731 28.452C140.453 28.6867 140.055 28.804 139.537 28.804C139.139 28.804 138.712 28.7187 138.254 28.548C137.816 28.3773 137.349 28.1213 136.851 27.78C136.354 27.4173 135.817 26.948 135.24 26.372Z" fill="black"/>
<path d="M150.593 24.1C150.593 23.268 150.772 22.532 151.13 21.892C151.488 21.252 151.966 20.7507 152.562 20.388C153.179 20.004 153.856 19.812 154.592 19.812C155.149 19.812 155.706 19.908 156.263 20.1C156.82 20.292 157.327 20.5693 157.785 20.932C158.263 21.2733 158.621 21.6787 158.859 22.148V17.892C158.382 17.444 157.755 17.092 156.979 16.836C156.223 16.5587 155.338 16.42 154.323 16.42C152.871 16.42 151.558 16.74 150.384 17.38C149.23 18.02 148.315 18.916 147.638 20.068C146.982 21.22 146.654 22.564 146.654 24.1C146.654 25.6147 146.982 26.9587 147.638 28.132C148.315 29.284 149.23 30.18 150.384 30.82C151.558 31.46 152.871 31.78 154.323 31.78C155.338 31.78 156.223 31.652 156.979 31.396C157.755 31.1187 158.382 30.7453 158.859 30.276V26.02C158.621 26.4893 158.272 26.9053 157.815 27.268C157.377 27.6093 156.88 27.8867 156.323 28.1C155.766 28.292 155.189 28.388 154.592 28.388C153.856 28.388 153.179 28.2067 152.562 27.844C151.966 27.4813 151.488 26.98 151.13 26.34C150.772 25.7 150.593 24.9533 150.593 24.1Z" fill="black"/>
</svg>
