<svg width="147" height="44" viewBox="0 0 147 44" fill="none" xmlns="http://www.w3.org/2000/svg">
<path d="M63.3917 31.7338H57V12.2662H63.5207C65.3934 12.2662 67.002 12.6559 68.3467 13.4354C69.6975 14.2085 70.7352 15.3207 71.4597 16.7719C72.1842 18.2231 72.5465 19.9594 72.5465 21.981C72.5465 24.0089 72.1811 25.7516 71.4505 27.2091C70.726 28.6667 69.6791 29.7852 68.3099 30.5646C66.9468 31.3441 65.3074 31.7338 63.3917 31.7338ZM60.4169 28.6825H63.226C64.5399 28.6825 65.6359 28.4354 66.5139 27.9411C67.3919 27.4404 68.052 26.6958 68.4941 25.7072C68.9361 24.7123 69.1572 23.4702 69.1572 21.981C69.1572 20.4918 68.9361 19.256 68.4941 18.2738C68.052 17.2852 67.3981 16.5469 66.5323 16.0589C65.6727 15.5646 64.6044 15.3175 63.3273 15.3175H60.4169V28.6825Z" fill="black"/>
<path d="M92.6473 22C92.6473 24.0976 92.2666 25.8942 91.5052 27.3897C90.75 28.879 89.7185 30.0196 88.4107 30.8118C87.109 31.6039 85.6323 32 83.9807 32C82.329 32 80.8493 31.6039 79.5414 30.8118C78.2398 30.0133 77.2082 28.8695 76.4469 27.3802C75.6917 25.8847 75.3141 24.0913 75.3141 22C75.3141 19.9024 75.6917 18.109 76.4469 16.6198C77.2082 15.1242 78.2398 13.9804 79.5414 13.1882C80.8493 12.3961 82.329 12 83.9807 12C85.6323 12 87.109 12.3961 88.4107 13.1882C89.7185 13.9804 90.75 15.1242 91.5052 16.6198C92.2666 18.109 92.6473 19.9024 92.6473 22ZM89.2119 22C89.2119 20.5234 88.9878 19.2782 88.5396 18.2643C88.0975 17.244 87.4835 16.474 86.6976 15.9544C85.9117 15.4284 85.006 15.1654 83.9807 15.1654C82.9553 15.1654 82.0496 15.4284 81.2637 15.9544C80.4778 16.474 79.8607 17.244 79.4125 18.2643C78.9704 19.2782 78.7494 20.5234 78.7494 22C78.7494 23.4766 78.9704 24.725 79.4125 25.7452C79.8607 26.7592 80.4778 27.5291 81.2637 28.0551C82.0496 28.5748 82.9553 28.8346 83.9807 28.8346C85.006 28.8346 85.9117 28.5748 86.6976 28.0551C87.4835 27.5291 88.0975 26.7592 88.5396 25.7452C88.9878 24.725 89.2119 23.4766 89.2119 22Z" fill="black"/>
<path d="M111.378 12.2662V31.7338H108.339L99.4511 18.4734H99.2946V31.7338H95.8777V12.2662H98.9354L107.814 25.5361H107.98V12.2662H111.378Z" fill="black"/>
<path d="M115.101 31.7338V12.2662H127.369V15.2224H118.518V20.5076H126.733V23.4639H118.518V28.7776H127.443V31.7338H115.101Z" fill="black"/>
<path d="M147 18.8346H143.555C143.457 18.2516 143.276 17.7351 143.012 17.2852C142.748 16.8289 142.42 16.4423 142.027 16.1255C141.634 15.8086 141.185 15.571 140.682 15.4125C140.185 15.2478 139.647 15.1654 139.07 15.1654C138.045 15.1654 137.136 15.4316 136.344 15.9639C135.552 16.4899 134.932 17.263 134.484 18.2833C134.035 19.2972 133.811 20.5361 133.811 22C133.811 23.4892 134.035 24.744 134.484 25.7643C134.938 26.7782 135.558 27.545 136.344 28.0646C137.136 28.5779 138.042 28.8346 139.061 28.8346C139.626 28.8346 140.154 28.7586 140.645 28.6065C141.142 28.448 141.588 28.2167 141.981 27.9125C142.38 27.6084 142.714 27.2345 142.984 26.7909C143.261 26.3473 143.451 25.8403 143.555 25.27L147 25.289C146.871 26.2142 146.592 27.0824 146.162 27.8935C145.738 28.7047 145.183 29.4208 144.495 30.0418C143.807 30.6565 143.003 31.1381 142.082 31.4867C141.161 31.8289 140.139 32 139.015 32C137.357 32 135.877 31.6039 134.576 30.8118C133.274 30.0196 132.249 28.8758 131.5 27.3802C130.751 25.8847 130.376 24.0913 130.376 22C130.376 19.9024 130.754 18.109 131.509 16.6198C132.264 15.1242 133.292 13.9804 134.594 13.1882C135.896 12.3961 137.369 12 139.015 12C140.065 12 141.041 12.1521 141.944 12.4563C142.846 12.7605 143.651 13.2072 144.357 13.7966C145.063 14.3796 145.643 15.0957 146.097 15.9449C146.558 16.7877 146.859 17.751 147 18.8346Z" fill="black"/>
<g clip-path="url(#clip0_181_44)">
<path d="M24.575 24.1173C28.7257 26.0469 33.0114 27.0081 36.6327 26.8188C36.6546 26.8188 36.6765 26.8152 36.6984 26.8152L36.9576 1.14334C36.9685 0.236765 35.95 -0.309367 35.198 0.196715L13.5469 14.7639C15.2991 18.0953 19.3512 21.6852 24.575 24.1173Z" fill="black"/>
<path d="M35.731 29.28C31.9528 29.28 27.6707 28.246 23.542 26.3273C17.8472 23.6803 13.5652 19.9011 11.5063 16.1328L0.500021 23.542C-0.361498 24.1209 -0.0475545 25.4535 0.978237 25.5918L19.4644 28.1004C20.5522 28.2497 21.5488 28.7849 22.2716 29.6077L34.5556 43.6142C35.2382 44.3933 36.5232 43.92 36.5341 42.8823L36.6729 29.2545C36.3626 29.2727 36.0486 29.28 35.731 29.28Z" fill="black"/>
<path d="M35.7311 27.3357C31.9528 27.3357 27.6708 26.3017 23.5421 24.383C13.8317 19.8683 8.21724 12.0695 10.7616 6.62639C13.306 1.18692 22.9069 0.46239 32.6172 4.98072C35.7931 6.45891 38.6734 8.37402 40.944 10.5221C41.4332 10.9845 41.4551 11.76 40.9915 12.2479C40.5242 12.7358 39.7503 12.7576 39.2611 12.2952C37.1803 10.3255 34.5264 8.56334 31.5841 7.19437C23.396 3.38601 14.8758 3.60083 12.9775 7.6604C11.0792 11.72 16.3907 18.3646 24.5751 22.1729C28.7258 24.1026 33.0078 25.0638 36.6328 24.8745C39.9803 24.6997 42.302 23.5747 43.1781 21.7069C44.0871 19.759 43.2073 17.5381 42.3093 16.0126C41.9661 15.43 42.1596 14.6837 42.7437 14.3414C43.3278 13.9992 44.0761 14.1921 44.4193 14.7747C46.1131 17.64 46.4599 20.469 45.3976 22.7373C44.1236 25.4607 41.0572 27.0845 36.7642 27.3102C36.421 27.3284 36.0779 27.3357 35.7311 27.3357Z" fill="black"/>
</g>
<defs>
<clipPath id="clip0_181_44">
<rect width="46" height="44" fill="white"/>
</clipPath>
</defs>
</svg>
